<svg id="Layer_1" viewBox="0 0 512 512" xmlns="http://www.w3.org/2000/svg" data-name="Layer 1"><path d="m464.125 61.952a47.722 47.722 0 0 1 33.823 14.06c.266.259.529.53.791.809l-242.739 221.541-242.737-221.541c.261-.279.524-.55.791-.809a47.708 47.708 0 0 1 33.821-14.06zm-460.349 29.269a47.57 47.57 0 0 0 -3.776 18.61v292.321a47.563 47.563 0 0 0 3.776 18.61l180.53-164.77zm9.487 343.94q.391.42.791.811a47.71 47.71 0 0 0 33.821 14.06h416.25a47.726 47.726 0 0 0 33.823-14.06q.4-.39.791-.811l-183.68-167.638-53.325 48.669a8.516 8.516 0 0 1 -11.467 0l-53.323-48.669zm494.961-14.4a47.562 47.562 0 0 0 3.776-18.609v-292.321a47.57 47.57 0 0 0 -3.775-18.61l-180.531 164.771z" fill="#f44336" fill-rule="evenodd"/></svg>