<svg id="Layer_5" height="512" viewBox="0 0 16 16" width="512" xmlns="http://www.w3.org/2000/svg" data-name="Layer 5"><path d="m13.72 10.03a1.4864 1.4864 0 0 0 -1.56-.37l-1.86.62a5.6732 5.6732 0 0 1 -3.27-1.79 5.7393 5.7393 0 0 1 -1.33-2.78l.63-1.87a1.4985 1.4985 0 0 0 -.37-1.57l-1.82-1.83a1.5869 1.5869 0 0 0 -2.31.14l-1.38 1.38a1.55 1.55 0 0 0 -.45 1.19 14.0459 14.0459 0 0 0 1.7 5.78 13.0182 13.0182 0 0 0 2.28 3.07 14.1472 14.1472 0 0 0 3.06 2.29 13.5075 13.5075 0 0 0 5.81 1.7h.09a1.5358 1.5358 0 0 0 1.09-.45l1.52-1.52a1.5127 1.5127 0 0 0 .45-1.08 1.4958 1.4958 0 0 0 -.45-1.08z" fill="#f44336"/></svg>